/* XPM */
static char *result[] = {
/* columns rows colors chars-per-pixel */
"32 32 5 1 ",
"  c #14182E",
". c #63AB3F",
"X c #FFEE83",
"o c #F5FFE8",
"O c None",
/* pixels */
"OOOOOOOOOOOOOOOOOOOOOOOOOOOOOOOO",
"OOOOOOOOOOOOOOOOOOOOOOOOOOOOOOOO",
"OOOOOOOOOO            OOOOOOOOOO",
"OOOOOOOOOO            OOOOOOOOOO",
"OOOOOOOOOO            OOOOOOOOOO",
"OOOOOOOOOO            OOOOOOOOOO",
"OOOOOO    XXXXXXXXXXXX    OOOOOO",
"OOOOOO    XXXXXXXXXXXX    OOOOOO",
"OOOOOO    XXXXXXXXXXXX    OOOOOO",
"OOOOOO    XXXXXXXXXXXX    OOOOOO",
"OO    XXXXoooo........XXXX    OO",
"OO    XXXXoooo........XXXX    OO",
"OO    XXXXoooo........XXXX    OO",
"OO    XXXXoooo........XXXX    OO",
"OO    XXXX............XXXX    OO",
"OO    XXXX............XXXX    OO",
"OO    XXXX............XXXX    OO",
"OO    XXXX............XXXX    OO",
"OO    XXXX............XXXX    OO",
"OO    XXXX............XXXX    OO",
"OO    XXXX............XXXX    OO",
"OO    XXXX............XXXX    OO",
"OOOOOO    XXXXXXXXXXXX    OOOOOO",
"OOOOOO    XXXXXXXXXXXX    OOOOOO",
"OOOOOO    XXXXXXXXXXXX    OOOOOO",
"OOOOOO    XXXXXXXXXXXX    OOOOOO",
"OOOOOOOOOO            OOOOOOOOOO",
"OOOOOOOOOO            OOOOOOOOOO",
"OOOOOOOOOO            OOOOOOOOOO",
"OOOOOOOOOO            OOOOOOOOOO",
"OOOOOOOOOOOOOOOOOOOOOOOOOOOOOOOO",
"OOOOOOOOOOOOOOOOOOOOOOOOOOOOOOOO"
};
