/* XPM */
static char *result[] = {
/* columns rows colors chars-per-pixel */
"32 32 5 1 ",
"  c #14182E",
". c #E64539",
"X c #AD2F45",
"o c #FFC2A1",
"O c None",
/* pixels */
"OOOOOOOOOOOOOOOOOOOOOOOOOOOOOOOO",
"OOOOOOOOOOOOOOOOOOOOOOOOOOOOOOOO",
"OOOOOOOOOOOOOOOOOOOOOOOOOOOOOOOO",
"OOOOOOOOOOOOOOOOOOOOOOOOOOOOOOOO",
"OOOOOOOOOOOOOOOOOOOOOOOOOOOOOOOO",
"OOOOOOOOOOOOOOOOOOOOOOOOOOOOOOOO",
"OOOOOOOOOOOOOOOOOOOOOOOOOOOOOOOO",
"OOOOOOOOOOOOOOOOOOOOOOOOOOOOOOOO",
"OOOOOOOOOOOOOOOOOOOOOOOOOOOOOOOO",
"OOOOOOOOOOO    OO    OOOOOOOOOOO",
"OOOOOOOOOOO    OO    OOOOOOOOOOO",
"OOOOOOOOO  ....  XXXX  OOOOOOOOO",
"OOOOOOOOO  ....  XXXX  OOOOOOOOO",
"OOOOOOOOO  ..oo....XX  OOOOOOOOO",
"OOOOOOOOO  ..oo....XX  OOOOOOOOO",
"OOOOOOOOO  ........XX  OOOOOOOOO",
"OOOOOOOOO  ........XX  OOOOOOOOO",
"OOOOOOOOOOO  ....XX  OOOOOOOOOOO",
"OOOOOOOOOOO  ....XX  OOOOOOOOOOO",
"OOOOOOOOOOOOO  XX  OOOOOOOOOOOOO",
"OOOOOOOOOOOOO  XX  OOOOOOOOOOOOO",
"OOOOOOOOOOOOOOO  OOOOOOOOOOOOOOO",
"OOOOOOOOOOOOOOO  OOOOOOOOOOOOOOO",
"OOOOOOOOOOOOOOOOOOOOOOOOOOOOOOOO",
"OOOOOOOOOOOOOOOOOOOOOOOOOOOOOOOO",
"OOOOOOOOOOOOOOOOOOOOOOOOOOOOOOOO",
"OOOOOOOOOOOOOOOOOOOOOOOOOOOOOOOO",
"OOOOOOOOOOOOOOOOOOOOOOOOOOOOOOOO",
"OOOOOOOOOOOOOOOOOOOOOOOOOOOOOOOO",
"OOOOOOOOOOOOOOOOOOOOOOOOOOOOOOOO",
"OOOOOOOOOOOOOOOOOOOOOOOOOOOOOOOO",
"OOOOOOOOOOOOOOOOOOOOOOOOOOOOOOOO"
};
