/* XPM */
static char *result[] = {
/* columns rows colors chars-per-pixel */
"32 32 10 1 ",
"  c #14182E",
". c #52333F",
"X c #3A3F5E",
"o c #8F4D57",
"O c #BD6A62",
"+ c #4C6885",
"@ c #4FA4B8",
"# c #FFC2A1",
"$ c #DFE0E8",
"% c None",
/* pixels */
"%%%%%%%%%%            %%%%%%%%%%",
"%%%%%%%%%%            %%%%%%%%%%",
"%%%%%%%%  XXXXXXXXXXXX  %%%%%%%%",
"%%%%%%%%  XXXXXXXXXXXX  %%%%%%%%",
"%%%%%%  XXXXXXXXXXXXXXXX  %%%%%%",
"%%%%%%  XXXXXXXXXXXXXXXX  %%%%%%",
"%%%%%%  XXXXXXXXXXXXXXXX  %%%%%%",
"%%%%%%  XXXXXXXXXXXXXXXX  %%%%%%",
"%%%%%%  XXXXXXXXXXXXXXXX  %%%%%%",
"%%%%%%  XXXXXXXXXXXXXXXX  %%%%%%",
"%%%%%%  XXXXXXXXXXXXXXXX  %%%%%%",
"%%%%%%  XXXXXXXXXXXXXXXX  %%%%%%",
"%%%%  ##XXXXXXXXXXXXXXXX##  %%%%",
"%%%%  ##XXXXXXXXXXXXXXXX##  %%%%",
"%%%%  ##XXXXXXXXXXXXXXXX##  %%%%",
"%%%%  ##XXXXXXXXXXXXXXXX##  %%%%",
"%%%%%%  OOXXXXXXXXXXXXOO  %%%%%%",
"%%%%%%  OOXXXXXXXXXXXXOO  %%%%%%",
"%%%%%%    OOOOXXXXOOOO    %%%%%%",
"%%%%%%    OOOOXXXXOOOO    %%%%%%",
"%%%%  ##$$..        ..$$##  %%%%",
"%%%%  ##$$..        ..$$##  %%%%",
"%%  ##OO  ..oo....oo..  OO##  %%",
"%%  ##OO  ..oo....oo..  OO##  %%",
"%%  ####  ....oooo....  ####  %%",
"%%  ####  ....oooo....  ####  %%",
"%%%%        ++@@@@++        %%%%",
"%%%%        ++@@@@++        %%%%",
"%%%%%%%%  OOOO    OOOO  %%%%%%%%",
"%%%%%%%%  OOOO    OOOO  %%%%%%%%",
"%%%%%%%%%%    %%%%    %%%%%%%%%%",
"%%%%%%%%%%    %%%%    %%%%%%%%%%"
};
