/* XPM */
static char *result[] = {
/* columns rows colors chars-per-pixel */
"32 32 10 1 ",
"  c #14182E",
". c #52333F",
"X c #2B2B45",
"o c #3A3F5E",
"O c #8F4D57",
"+ c #BD6A62",
"@ c #4FA4B8",
"# c #FFC2A1",
"$ c #DFE0E8",
"% c None",
/* pixels */
"%%%%%%%%%%            %%%%%%%%%%",
"%%%%%%%%%%            %%%%%%%%%%",
"%%%%%%%%  oooooooooooo  %%%%%%%%",
"%%%%%%%%  oooooooooooo  %%%%%%%%",
"%%%%%%  oooooooooooooooo  %%%%%%",
"%%%%%%  oooooooooooooooo  %%%%%%",
"%%%%%%  oooooooooooooooo  %%%%%%",
"%%%%%%  oooooooooooooooo  %%%%%%",
"%%%%%%  oooooooooo##oooo  %%%%%%",
"%%%%%%  oooooooooo##oooo  %%%%%%",
"%%%%%%  oooooooooo######  %%%%%%",
"%%%%%%  oooooooooo######  %%%%%%",
"%%%%%%  ooooooooooXXXX##  %%%%%%",
"%%%%%%  ooooooooooXXXX##  %%%%%%",
"%%%%%%  oooo####oo##  ##  %%%%%%",
"%%%%%%  oooo####oo##  ##  %%%%%%",
"%%%%%%%%  oo##++oo##  ++  %%%%%%",
"%%%%%%%%  oo##++oo##  ++  %%%%%%",
"%%%%%%%%%%  oo########  %%%%%%%%",
"%%%%%%%%%%  oo########  %%%%%%%%",
"%%%%%%%%%%    ..++    %%%%%%%%%%",
"%%%%%%%%%%    ..++    %%%%%%%%%%",
"%%%%%%%%%%  $$  ..OO$$  %%%%%%%%",
"%%%%%%%%%%  $$  ..OO$$  %%%%%%%%",
"%%%%%%%%%%  ##++  OO$$  %%%%%%%%",
"%%%%%%%%%%  ##++  OO$$  %%%%%%%%",
"%%%%%%%%%%  ####  @@@@  %%%%%%%%",
"%%%%%%%%%%  ####  @@@@  %%%%%%%%",
"%%%%%%%%%%%%    ++++  %%%%%%%%%%",
"%%%%%%%%%%%%    ++++  %%%%%%%%%%",
"%%%%%%%%%%%%%%%%    %%%%%%%%%%%%",
"%%%%%%%%%%%%%%%%    %%%%%%%%%%%%",
}; 