/* XPM */
static char *result[] = {
/* columns rows colors chars-per-pixel */
"32 32 6 1 ",
"  c #14182E",
". c #AD2F45",
"X c #686F99",
"o c #A3A7C2",
"O c #DFE0E8",
"+ c None",
/* pixels */
"++++++++++            ++++++++++",
"++++++++++            ++++++++++",
"++++++++  ooOOOOOOOOoo  ++++++++",
"++++++++  ooOOOOOOOOoo  ++++++++",
"++++++  ooOOOOOOOOOOOOoo  ++++++",
"++++++  ooOOOOOOOOOOOOoo  ++++++",
"++++++  ooOOOOOOOOOOOOoo  ++++++",
"++++++  ooOOOOOOOOOOOOoo  ++++++",
"++++++  XXooOOOOOOOOooXX  ++++++",
"++++++  XXooOOOOOOOOooXX  ++++++",
"++++++  oo  ooOOOOoo  oo  ++++++",
"++++++  oo  ooOOOOoo  oo  ++++++",
"++++++  oo    oooo    oo  ++++++",
"++++++  oo    oooo    oo  ++++++",
"++++++  oo  ..OOOO..  oo  ++++++",
"++++++  oo  ..OOOO..  oo  ++++++",
"++++++++  ooOOXXXXOOoo  ++++++++",
"++++++++  ooOOXXXXOOoo  ++++++++",
"++++++    OO  OOOO  OO    ++++++",
"++++++    OO  OOOO  OO    ++++++",
"++++  OOOO            OOOO  ++++",
"++++  OOOO            OOOO  ++++",
"++  OOoo  XXooOOOOooXX  ooOO  ++",
"++  OOoo  XXooOOOOooXX  ooOO  ++",
"++  OOOO  ooOOXXXXOOoo  OOOO  ++",
"++  OOOO  ooOOXXXXOOoo  OOOO  ++",
"++++        XXooooXX        ++++",
"++++        XXooooXX        ++++",
"++++++++  oooo    oooo  ++++++++",
"++++++++  oooo    oooo  ++++++++",
"++++++++++    ++++    ++++++++++",
"++++++++++    ++++    ++++++++++"
};
