/* XPM */
static char *result[] = {
/* columns rows colors chars-per-pixel */
"32 32 5 1 ",
"  c #181425",
". c #52333F",
"X c #8F4D57",
"o c #BD6A62",
"O c None",
/* pixels */
"OOOOOOOOOOO..      ..OOOOOOOOOOO",
"OOOOOOOOOOO..      ..OOOOOOOOOOO",
"OOOOOOO..  XXXXXXXXXX  ..OOOOOOO",
"OOOOOOO..  XXXXXXXXXX  ..OOOOOOO",
"OOOOO  XXXXooooooooooXXXX  OOOOO",
"OOOOO  XXXXooooooooooXXXX  OOOOO",
"OOO..XXooooXXXXXXXXXXooooXX..OOO",
"OOO..XXooooXXXXXXXXXXooooXX..OOO",
"OOO  XXooXXXXooooooXXXXooXX  OOO",
"OOO  XXooXXXXooooooXXXXooXX  OOO",
"OOO  XXooooXXXXXXXXXXooooXX  OOO",
"OOO  XXooooXXXXXXXXXXooooXX  OOO",
"OOO    XXXXooooooooooXXXX    OOO",
"OOO    XXXXooooooooooXXXX    OOO",
"OOO  ..    XXXXXXXXXX    ..  OOO",
"OOO  ..    XXXXXXXXXX    ..  OOO",
"O  ..XX......      ......XX..  O",
"O  ..XX......      ......XX..  O",
" XXooXXXX....XX..XX....XXXXooXX ",
" XXooXXXX....XX..XX....XXXXooXX ",
" ..XXXX......ooXXoo......XXXX.. ",
" ..XXXX......ooXXoo......XXXX.. ",
" ......    ..XXooXX..    ...... ",
" ......    ..XXooXX..    ...... ",
"O      OOOO  XXooXX  OOOO      O",
"O      OOOO  XXooXX  OOOO      O",
"OOOOOOOOOOO  ..XX..  OOOOOOOOOOO",
"OOOOOOOOOOO  ..XX..  OOOOOOOOOOO",
"OOOOOOOOOOOOO  ..  OOOOOOOOOOOOO",
"OOOOOOOOOOOOO  ..  OOOOOOOOOOOOO",
"OOOOOOOOOOOOOOO  OOOOOOOOOOOOOOO",
"OOOOOOOOOOOOOOO  OOOOOOOOOOOOOOO"
};
